<svg width="1180" height="760" viewBox="0 0 1180 760" xmlns="http://www.w3.org/2000/svg" font-family="PingFang SC, Microsoft YaHei, Inter, sans-serif">
  <defs>
    <linearGradient id="hdr" x1="0" y1="0" x2="0" y2="1">
      <stop offset="0" stop-color="#3b8bf7"/><stop offset="1" stop-color="#67a9ff"/>
    </linearGradient>
    <filter id="sh" x="-20%" y="-20%" width="140%" height="140%">
      <feDropShadow dx="0" dy="2" stdDeviation="3" flood-color="#2f7bf6" flood-opacity="0.12"/>
    </filter>
  </defs>

  <rect x="0" y="0" width="1180" height="760" fill="#f4f9ff" rx="14"/>

  <!-- ============ 左侧栏：接入与产品 ============ -->
  <g>
    <rect x="24" y="24" width="188" height="46" rx="10" fill="url(#hdr)" filter="url(#sh)"/>
    <text x="118" y="53" fill="#fff" font-size="17" font-weight="700" text-anchor="middle">接入与产品</text>
    <g font-size="13" font-weight="600" fill="#2b4a6b" text-anchor="middle">
      <rect x="24" y="82"  width="188" height="40" rx="10" fill="#fff" stroke="#d3e4fb"/><text x="118" y="107">聊天室 · CLI · HTTP</text>
      <rect x="24" y="130" width="188" height="40" rx="10" fill="#fff" stroke="#d3e4fb"/><text x="118" y="155">Cron · Event 事件</text>
      <rect x="24" y="186" width="188" height="40" rx="10" fill="#eaf3ff" stroke="#bcd8fb"/><text x="118" y="211">chat_assistant</text>
      <rect x="24" y="234" width="188" height="40" rx="10" fill="#eaf3ff" stroke="#bcd8fb"/><text x="118" y="259">short_drama</text>
      <rect x="24" y="282" width="188" height="40" rx="10" fill="#eaf3ff" stroke="#bcd8fb"/><text x="118" y="307">email_automation</text>
    </g>
    <rect x="24" y="342" width="188" height="120" rx="10" fill="#eaf3ff" stroke="#bcd8fb" stroke-dasharray="4 3"/>
    <text x="118" y="378" font-size="26" text-anchor="middle">&#129513;</text>
    <text x="118" y="410" font-size="12" fill="#3b5b7d" text-anchor="middle">渠道适配器把输入</text>
    <text x="118" y="430" font-size="12" fill="#3b5b7d" text-anchor="middle">统一转成</text>
    <text x="118" y="452" font-size="13" fill="#2f7bf6" font-weight="700" text-anchor="middle">IncomingRequest</text>
  </g>

  <!-- ============ 顶部入口带 ============ -->
  <g>
    <rect x="236" y="24" width="690" height="72" rx="12" fill="#dcebff" stroke="#bcd8fb"/>
    <circle cx="262" cy="48" r="13" fill="url(#hdr)"/><text x="262" y="53" fill="#fff" font-size="13" font-weight="700" text-anchor="middle">&#9673;</text>
    <text x="286" y="53" font-size="14" font-weight="700" fill="#1e3a5f">渠道适配器 · 六层之外</text>
    <g font-size="12.5" font-weight="600" fill="#3b5b7d" text-anchor="middle">
      <rect x="252" y="60" width="126" height="28" rx="7" fill="#fff" stroke="#d3e4fb"/><text x="315" y="79">聊天室</text>
      <rect x="386" y="60" width="126" height="28" rx="7" fill="#fff" stroke="#d3e4fb"/><text x="449" y="79">CLI · HTTP</text>
      <rect x="520" y="60" width="126" height="28" rx="7" fill="#fff" stroke="#d3e4fb"/><text x="583" y="79">Cron</text>
      <rect x="654" y="60" width="126" height="28" rx="7" fill="#fff" stroke="#d3e4fb"/><text x="717" y="79">Event</text>
    </g>
  </g>
  <text x="581" y="112" font-size="12" font-weight="700" fill="#2f7bf6" text-anchor="middle">&#9660; 路由请求</text>

  <!-- ============ L1 ============ -->
  <g>
    <rect x="236" y="122" width="690" height="80" rx="12" fill="#eef4ff" stroke="#c9ddfa"/>
    <circle cx="262" cy="150" r="13" fill="url(#hdr)"/><text x="262" y="155" fill="#fff" font-size="13" font-weight="700" text-anchor="middle">&#9312;</text>
    <text x="286" y="155" font-size="14" font-weight="700" fill="#1e3a5f">Agent 定义层</text>
    <g font-size="12.5" font-weight="600" fill="#3b5b7d" text-anchor="middle">
      <rect x="252" y="164" width="160" height="28" rx="7" fill="#fff" stroke="#d3e4fb"/><text x="332" y="183">身份 Profile</text>
      <rect x="420" y="164" width="160" height="28" rx="7" fill="#fff" stroke="#d3e4fb"/><text x="500" y="183">知识策略</text>
      <rect x="588" y="164" width="160" height="28" rx="7" fill="#fff" stroke="#d3e4fb"/><text x="668" y="183">Skill 授权</text>
      <rect x="756" y="164" width="154" height="28" rx="7" fill="#fff" stroke="#d3e4fb"/><text x="833" y="183">工作流模板</text>
    </g>
  </g>
  <text x="581" y="217" font-size="13" fill="#5aa2ff" text-anchor="middle">&#9660;</text>
  <!-- ============ L2 ============ -->
  <g>
    <rect x="236" y="224" width="690" height="80" rx="12" fill="#eef4ff" stroke="#c9ddfa"/>
    <circle cx="262" cy="252" r="13" fill="url(#hdr)"/><text x="262" y="257" fill="#fff" font-size="13" font-weight="700" text-anchor="middle">&#9313;</text>
    <text x="286" y="257" font-size="14" font-weight="700" fill="#1e3a5f">Task 与 Plan 层</text>
    <g font-size="12.5" font-weight="600" fill="#3b5b7d" text-anchor="middle">
      <rect x="252" y="266" width="160" height="28" rx="7" fill="#fff" stroke="#d3e4fb"/><text x="332" y="285">Task 目标</text>
      <rect x="420" y="266" width="160" height="28" rx="7" fill="#fff" stroke="#d3e4fb"/><text x="500" y="285">TaskPlan DAG</text>
      <rect x="588" y="266" width="160" height="28" rx="7" fill="#fff" stroke="#d3e4fb"/><text x="668" y="285">验收标准</text>
      <rect x="756" y="266" width="154" height="28" rx="7" fill="#fff" stroke="#d3e4fb"/><text x="833" y="285">版本/重规划</text>
    </g>
  </g>
  <text x="581" y="319" font-size="13" fill="#5aa2ff" text-anchor="middle">&#9660;</text>
  <!-- ============ L3 ============ -->
  <g>
    <rect x="236" y="326" width="690" height="80" rx="12" fill="#eef4ff" stroke="#c9ddfa"/>
    <circle cx="262" cy="354" r="13" fill="url(#hdr)"/><text x="262" y="359" fill="#fff" font-size="13" font-weight="700" text-anchor="middle">&#9314;</text>
    <text x="286" y="359" font-size="14" font-weight="700" fill="#1e3a5f">编排与协作层</text>
    <g font-size="12.5" font-weight="600" fill="#3b5b7d" text-anchor="middle">
      <rect x="252" y="368" width="160" height="28" rx="7" fill="#fff" stroke="#d3e4fb"/><text x="332" y="387">节点调度</text>
      <rect x="420" y="368" width="160" height="28" rx="7" fill="#fff" stroke="#d3e4fb"/><text x="500" y="387">单/多 Agent</text>
      <rect x="588" y="368" width="160" height="28" rx="7" fill="#fff" stroke="#d3e4fb"/><text x="668" y="387">WorkOrder</text>
      <rect x="756" y="368" width="154" height="28" rx="7" fill="#fff" stroke="#d3e4fb"/><text x="833" y="387">汇总/恢复</text>
    </g>
  </g>
  <text x="581" y="421" font-size="13" fill="#5aa2ff" text-anchor="middle">&#9660;</text>
  <!-- ============ L4 ============ -->
  <g>
    <rect x="236" y="428" width="690" height="80" rx="12" fill="#eef4ff" stroke="#c9ddfa"/>
    <circle cx="262" cy="456" r="13" fill="url(#hdr)"/><text x="262" y="461" fill="#fff" font-size="13" font-weight="700" text-anchor="middle">&#9315;</text>
    <text x="286" y="461" font-size="14" font-weight="700" fill="#1e3a5f">单 Agent Runtime 层</text>
    <g font-size="12.5" font-weight="600" fill="#3b5b7d" text-anchor="middle">
      <rect x="252" y="470" width="160" height="28" rx="7" fill="#fff" stroke="#d3e4fb"/><text x="332" y="489">上下文工程</text>
      <rect x="420" y="470" width="160" height="28" rx="7" fill="#fff" stroke="#d3e4fb"/><text x="500" y="489">模型调用</text>
      <rect x="588" y="470" width="160" height="28" rx="7" fill="#fff" stroke="#d3e4fb"/><text x="668" y="489">结构化决策</text>
      <rect x="756" y="470" width="154" height="28" rx="7" fill="#fff" stroke="#d3e4fb"/><text x="833" y="489">动作提议</text>
    </g>
  </g>
  <text x="581" y="523" font-size="13" fill="#5aa2ff" text-anchor="middle">&#9660;</text>
  <!-- ============ L5 ============ -->
  <g>
    <rect x="236" y="530" width="690" height="80" rx="12" fill="#eef4ff" stroke="#c9ddfa"/>
    <circle cx="262" cy="558" r="13" fill="url(#hdr)"/><text x="262" y="563" fill="#fff" font-size="13" font-weight="700" text-anchor="middle">&#9316;</text>
    <text x="286" y="563" font-size="14" font-weight="700" fill="#1e3a5f">运行控制与治理层</text>
    <g font-size="12.5" font-weight="600" fill="#3b5b7d" text-anchor="middle">
      <rect x="252" y="572" width="160" height="28" rx="7" fill="#fff" stroke="#d3e4fb"/><text x="332" y="591">预算/防循环</text>
      <rect x="420" y="572" width="160" height="28" rx="7" fill="#fff" stroke="#d3e4fb"/><text x="500" y="591">输入 Guardrail</text>
      <rect x="588" y="572" width="160" height="28" rx="7" fill="#fff" stroke="#d3e4fb"/><text x="668" y="591">能力授权</text>
      <rect x="756" y="572" width="154" height="28" rx="7" fill="#fff" stroke="#d3e4fb"/><text x="833" y="591">人工 interrupt</text>
    </g>
  </g>
  <text x="581" y="625" font-size="13" fill="#5aa2ff" text-anchor="middle">&#9660;</text>
  <!-- ============ L6 ============ -->
  <g>
    <rect x="236" y="632" width="690" height="80" rx="12" fill="#eef4ff" stroke="#c9ddfa"/>
    <circle cx="262" cy="660" r="13" fill="url(#hdr)"/><text x="262" y="665" fill="#fff" font-size="13" font-weight="700" text-anchor="middle">&#9317;</text>
    <text x="286" y="665" font-size="14" font-weight="700" fill="#1e3a5f">能力与交付层</text>
    <g font-size="12.5" font-weight="600" fill="#3b5b7d" text-anchor="middle">
      <rect x="252" y="674" width="160" height="28" rx="7" fill="#fff" stroke="#d3e4fb"/><text x="332" y="693">Skill 实现</text>
      <rect x="420" y="674" width="160" height="28" rx="7" fill="#fff" stroke="#d3e4fb"/><text x="500" y="693">工具适配器</text>
      <rect x="588" y="674" width="160" height="28" rx="7" fill="#fff" stroke="#d3e4fb"/><text x="668" y="693">Artifact 生成</text>
      <rect x="756" y="674" width="154" height="28" rx="7" fill="#fff" stroke="#d3e4fb"/><text x="833" y="693">幂等 Effect</text>
    </g>
  </g>

  <!-- 证据回流弧线 L6 -> L4 -->
  <path d="M 926 672 C 962 672 962 468 926 468" fill="none" stroke="#f59e0b" stroke-width="2" stroke-dasharray="5 4"/>
  <polygon points="926,464 918,470 926,476" fill="#f59e0b"/>
  <text x="978" y="572" font-size="11" font-weight="700" fill="#d97706" transform="rotate(90 978 572)">结果 / 证据回流</text>

  <!-- ============ 右侧栏：横切平面 ============ -->
  <g font-size="12" font-weight="600" fill="#2b4a6b" text-anchor="middle">
    <rect x="1002" y="24" width="154" height="150" rx="12" fill="#fff" stroke="#d3e4fb" filter="url(#sh)"/>
    <text x="1079" y="46" font-size="14" font-weight="700" fill="#1e3a5f">数据与证据</text>
    <rect x="1014" y="58"  width="60" height="26" rx="6" fill="#eef5ff" stroke="#d3e4fb"/><text x="1044" y="75">Task</text>
    <rect x="1084" y="58"  width="60" height="26" rx="6" fill="#eef5ff" stroke="#d3e4fb"/><text x="1114" y="75">Plan</text>
    <rect x="1014" y="90"  width="60" height="26" rx="6" fill="#eef5ff" stroke="#d3e4fb"/><text x="1044" y="107">Run</text>
    <rect x="1084" y="90"  width="60" height="26" rx="6" fill="#eef5ff" stroke="#d3e4fb"/><text x="1114" y="107">Artifact</text>
    <rect x="1014" y="122" width="60" height="26" rx="6" fill="#eef5ff" stroke="#d3e4fb"/><text x="1044" y="139">Effect</text>
    <rect x="1084" y="122" width="60" height="26" rx="6" fill="#eef5ff" stroke="#d3e4fb"/><text x="1114" y="139" font-size="9">Checkpoint·重放</text>

    <rect x="1002" y="188" width="154" height="150" rx="12" fill="#fff" stroke="#d3e4fb" filter="url(#sh)"/>
    <text x="1079" y="210" font-size="14" font-weight="700" fill="#1e3a5f">记忆与知识</text>
    <rect x="1014" y="222" width="60" height="26" rx="6" fill="#fff7ed" stroke="#fed7aa"/><text x="1044" y="239">用户</text>
    <rect x="1084" y="222" width="60" height="26" rx="6" fill="#fff7ed" stroke="#fed7aa"/><text x="1114" y="239">Agent</text>
    <rect x="1014" y="254" width="60" height="26" rx="6" fill="#fff7ed" stroke="#fed7aa"/><text x="1044" y="271">项目</text>
    <rect x="1084" y="254" width="60" height="26" rx="6" fill="#fff7ed" stroke="#fed7aa"/><text x="1114" y="271">Task</text>
    <rect x="1014" y="286" width="60" height="26" rx="6" fill="#fff7ed" stroke="#fed7aa"/><text x="1044" y="303">会话</text>
    <rect x="1084" y="286" width="60" height="26" rx="6" fill="#fff7ed" stroke="#fed7aa"/><text x="1114" y="303" font-size="10.5">知识索引</text>

    <rect x="1002" y="352" width="154" height="150" rx="12" fill="#fff" stroke="#d3e4fb" filter="url(#sh)"/>
    <text x="1079" y="374" font-size="14" font-weight="700" fill="#1e3a5f">观测与评测</text>
    <rect x="1014" y="386" width="60" height="26" rx="6" fill="#f1f5f9" stroke="#cbd5e1"/><text x="1044" y="403">trace</text>
    <rect x="1084" y="386" width="60" height="26" rx="6" fill="#f1f5f9" stroke="#cbd5e1"/><text x="1114" y="403">审计</text>
    <rect x="1014" y="418" width="60" height="26" rx="6" fill="#f1f5f9" stroke="#cbd5e1"/><text x="1044" y="435">成本</text>
    <rect x="1084" y="418" width="60" height="26" rx="6" fill="#f1f5f9" stroke="#cbd5e1"/><text x="1114" y="435">回放</text>
    <rect x="1014" y="450" width="60" height="26" rx="6" fill="#f1f5f9" stroke="#cbd5e1"/><text x="1044" y="467" font-size="10.5">场景评测</text>
    <rect x="1084" y="450" width="60" height="26" rx="6" fill="#f1f5f9" stroke="#cbd5e1"/><text x="1114" y="467" font-size="10.5">版本门禁</text>

    <rect x="1002" y="516" width="154" height="196" rx="12" fill="url(#hdr)" filter="url(#sh)"/>
    <text x="1079" y="606" font-size="15" font-weight="700" fill="#fff" text-anchor="middle">全层可读写</text>
    <text x="1079" y="632" font-size="13" font-weight="600" fill="#e6f0ff" text-anchor="middle">横切平面</text>
  </g>

  <!-- 内核 -> 平面 聚合连接 -->
  <path d="M 928 366 L 1000 300" fill="none" stroke="#94b8e6" stroke-width="1.5" stroke-dasharray="4 3"/>
  <polygon points="1000,300 990,300 996,308" fill="#94b8e6"/>
</svg>
